<svg id="Layer_1" data-name="Layer 1" xmlns="http://www.w3.org/2000/svg" viewBox="0 0 954 723.2"><defs><style>.cls-1{fill:#fff;}</style></defs><path class="cls-1" d="M831.13,138.16V610.05L558.69,138.16H523.32v0H467.69v0h-.06v0H300.85V193.7H189.71v55.57H134.2V193.7H78.57v55.63h55.57V304.9h55.63V249.33H300.85v55.51H245.28v55.57H189.71V416H134.2V360.41H78.63V304.84H23v55.63H78.57V416h55.57v55.51H78.57v55.57H23v55.64H78.63V527.18H134.2V471.61h55.51v55.57h55.57v55.51H134.14v55.57H78.57V693.9h55.57v55.57H245.28V805h55.64V749.47h111V805h-55.5v55.63h55.5v.71H557.8V389.26L830.34,861.32H977V138.16ZM412.06,471.55H356.49V416h111v55.51ZM356.49,249.33h55.44v55.51H356.49Zm-.06-.06H300.92V193.76h55.51Zm-55.51,111.2h55.51V416H300.85V527.12h-55.5V471.55H189.77V416h55.58V360.47h55.57ZM245.35,693.9h55.5v55.51h-55.5Zm-55.64-.06H134.2V638.33H245.28v55.51H189.71Zm111.21,0V638.26H245.35v-55.5H411.93v55.5h-55.5v55.58ZM467.63,249.27H412.06V193.76h55.57Zm55.82,444.88h-.13v-.31H467.81V638.51h55.64ZM579.14,304.9H523.51V249.27h55.63Z" transform="translate(-23 -138.13)"/></svg>